<?xml version="1.0" encoding="UTF-8" standalone="no"?>
<!DOCTYPE svg PUBLIC "-//W3C//DTD SVG 1.1//EN"
 "http://www.w3.org/Graphics/SVG/1.1/DTD/svg11.dtd">
<!-- Generated by graphviz version 2.42.3 (20191010.1750)
 -->
<!-- Title: snakemake_dag Pages: 1 -->
<svg width="971pt" height="476pt"
 viewBox="0.00 0.00 971.00 476.00" xmlns="http://www.w3.org/2000/svg" xmlns:xlink="http://www.w3.org/1999/xlink">
<g id="graph0" class="graph" transform="scale(1 1) rotate(0) translate(4 472)">
<title>snakemake_dag</title>
<polygon fill="white" stroke="transparent" points="-4,4 -4,-472 967,-472 967,4 -4,4"/>
<!-- 0 -->
<g id="node1" class="node">
<title>0</title>
<path fill="none" stroke="#78d856" stroke-width="2" d="M527,-36C527,-36 497,-36 497,-36 491,-36 485,-30 485,-24 485,-24 485,-12 485,-12 485,-6 491,0 497,0 497,0 527,0 527,0 533,0 539,-6 539,-12 539,-12 539,-24 539,-24 539,-30 533,-36 527,-36"/>
<text text-anchor="middle" x="512" y="-15.5" font-family="sans" font-size="10.00">all</text>
</g>
<!-- 1 -->
<g id="node2" class="node">
<title>1</title>
<path fill="none" stroke="#5682d8" stroke-width="2" d="M200,-180C200,-180 170,-180 170,-180 164,-180 158,-174 158,-168 158,-168 158,-156 158,-156 158,-150 164,-144 170,-144 170,-144 200,-144 200,-144 206,-144 212,-150 212,-156 212,-156 212,-168 212,-168 212,-174 206,-180 200,-180"/>
<text text-anchor="middle" x="185" y="-159.5" font-family="sans" font-size="10.00">multiqc</text>
</g>
<!-- 1&#45;&gt;0 -->
<g id="edge3" class="edge">
<title>1&#45;&gt;0</title>
<path fill="none" stroke="grey" stroke-width="2" d="M198.66,-143.73C215.72,-123.38 246.85,-90.07 281,-72 343.89,-38.73 427.22,-26.22 474.68,-21.61"/>
<polygon fill="grey" stroke="grey" stroke-width="2" points="475.16,-25.08 484.81,-20.69 474.53,-18.11 475.16,-25.08"/>
</g>
<!-- 2 -->
<g id="node3" class="node">
<title>2</title>
<path fill="none" stroke="#569ad8" stroke-width="2" d="M367.5,-108C367.5,-108 302.5,-108 302.5,-108 296.5,-108 290.5,-102 290.5,-96 290.5,-96 290.5,-84 290.5,-84 290.5,-78 296.5,-72 302.5,-72 302.5,-72 367.5,-72 367.5,-72 373.5,-72 379.5,-78 379.5,-84 379.5,-84 379.5,-96 379.5,-96 379.5,-102 373.5,-108 367.5,-108"/>
<text text-anchor="middle" x="335" y="-87.5" font-family="sans" font-size="10.00">salmonTE_test</text>
</g>
<!-- 2&#45;&gt;0 -->
<g id="edge2" class="edge">
<title>2&#45;&gt;0</title>
<path fill="none" stroke="grey" stroke-width="2" d="M378.3,-71.88C408.05,-60.11 447.12,-44.66 475.34,-33.5"/>
<polygon fill="grey" stroke="grey" stroke-width="2" points="476.82,-36.68 484.83,-29.74 474.25,-30.17 476.82,-36.68"/>
</g>
<!-- 3 -->
<g id="node4" class="node">
<title>3</title>
<path fill="none" stroke="#d85656" stroke-width="2" d="M543,-108C543,-108 481,-108 481,-108 475,-108 469,-102 469,-96 469,-96 469,-84 469,-84 469,-78 475,-72 481,-72 481,-72 543,-72 543,-72 549,-72 555,-78 555,-84 555,-84 555,-96 555,-96 555,-102 549,-108 543,-108"/>
<text text-anchor="middle" x="512" y="-87.5" font-family="sans" font-size="10.00">deseq2_report</text>
</g>
<!-- 3&#45;&gt;0 -->
<g id="edge1" class="edge">
<title>3&#45;&gt;0</title>
<path fill="none" stroke="grey" stroke-width="2" d="M512,-71.7C512,-63.98 512,-54.71 512,-46.11"/>
<polygon fill="grey" stroke="grey" stroke-width="2" points="515.5,-46.1 512,-36.1 508.5,-46.1 515.5,-46.1"/>
</g>
<!-- 4 -->
<g id="node5" class="node">
<title>4</title>
<path fill="none" stroke="#566bd8" stroke-width="2" d="M804.5,-180C804.5,-180 699.5,-180 699.5,-180 693.5,-180 687.5,-174 687.5,-168 687.5,-168 687.5,-156 687.5,-156 687.5,-150 693.5,-144 699.5,-144 699.5,-144 804.5,-144 804.5,-144 810.5,-144 816.5,-150 816.5,-156 816.5,-156 816.5,-168 816.5,-168 816.5,-174 810.5,-180 804.5,-180"/>
<text text-anchor="middle" x="752" y="-159.5" font-family="sans" font-size="10.00">featureCounts_multihit</text>
</g>
<!-- 4&#45;&gt;0 -->
<g id="edge4" class="edge">
<title>4&#45;&gt;0</title>
<path fill="none" stroke="grey" stroke-width="2" d="M723.05,-143.87C679.13,-117.88 595.73,-68.54 547.97,-40.28"/>
<polygon fill="grey" stroke="grey" stroke-width="2" points="549.59,-37.18 539.2,-35.1 546.03,-43.2 549.59,-37.18"/>
</g>
<!-- 5 -->
<g id="node6" class="node">
<title>5</title>
<path fill="none" stroke="#d86e56" stroke-width="2" d="M951,-180C951,-180 847,-180 847,-180 841,-180 835,-174 835,-168 835,-168 835,-156 835,-156 835,-150 841,-144 847,-144 847,-144 951,-144 951,-144 957,-144 963,-150 963,-156 963,-156 963,-168 963,-168 963,-174 957,-180 951,-180"/>
<text text-anchor="middle" x="899" y="-159.5" font-family="sans" font-size="10.00">featureCounts_random</text>
</g>
<!-- 5&#45;&gt;0 -->
<g id="edge5" class="edge">
<title>5&#45;&gt;0</title>
<path fill="none" stroke="grey" stroke-width="2" d="M852.32,-143.87C774.36,-115.27 619.29,-58.37 548.62,-32.44"/>
<polygon fill="grey" stroke="grey" stroke-width="2" points="549.82,-29.15 539.23,-28.99 547.41,-35.72 549.82,-29.15"/>
</g>
<!-- 6 -->
<g id="node7" class="node">
<title>6</title>
<path fill="none" stroke="#d89c56" stroke-width="2" d="M42,-252C42,-252 12,-252 12,-252 6,-252 0,-246 0,-240 0,-240 0,-228 0,-228 0,-222 6,-216 12,-216 12,-216 42,-216 42,-216 48,-216 54,-222 54,-228 54,-228 54,-240 54,-240 54,-246 48,-252 42,-252"/>
<text text-anchor="middle" x="27" y="-231.5" font-family="sans" font-size="10.00">fastqc</text>
</g>
<!-- 6&#45;&gt;1 -->
<g id="edge10" class="edge">
<title>6&#45;&gt;1</title>
<path fill="none" stroke="grey" stroke-width="2" d="M54.16,-220.97C80.24,-209.41 119.82,-191.88 148.61,-179.12"/>
<polygon fill="grey" stroke="grey" stroke-width="2" points="150.2,-182.24 157.93,-174.99 147.37,-175.84 150.2,-182.24"/>
</g>
<!-- 7 -->
<g id="node8" class="node">
<title>7</title>
<path fill="none" stroke="#56d87b" stroke-width="2" d="M181.5,-396C181.5,-396 134.5,-396 134.5,-396 128.5,-396 122.5,-390 122.5,-384 122.5,-384 122.5,-372 122.5,-372 122.5,-366 128.5,-360 134.5,-360 134.5,-360 181.5,-360 181.5,-360 187.5,-360 193.5,-366 193.5,-372 193.5,-372 193.5,-384 193.5,-384 193.5,-390 187.5,-396 181.5,-396"/>
<text text-anchor="middle" x="158" y="-375.5" font-family="sans" font-size="10.00">trim_single</text>
</g>
<!-- 7&#45;&gt;1 -->
<g id="edge8" class="edge">
<title>7&#45;&gt;1</title>
<path fill="none" stroke="grey" stroke-width="2" d="M139.96,-359.98C130.78,-350.3 120.26,-337.44 114,-324 93.59,-280.17 77.65,-258.34 101,-216 111.12,-197.65 130.55,-184.78 148.18,-176.32"/>
<polygon fill="grey" stroke="grey" stroke-width="2" points="150.01,-179.34 157.72,-172.07 147.16,-172.95 150.01,-179.34"/>
</g>
<!-- 9 -->
<g id="node10" class="node">
<title>9</title>
<path fill="none" stroke="#56d8b9" stroke-width="2" d="M290.5,-324C290.5,-324 223.5,-324 223.5,-324 217.5,-324 211.5,-318 211.5,-312 211.5,-312 211.5,-300 211.5,-300 211.5,-294 217.5,-288 223.5,-288 223.5,-288 290.5,-288 290.5,-288 296.5,-288 302.5,-294 302.5,-300 302.5,-300 302.5,-312 302.5,-312 302.5,-318 296.5,-324 290.5,-324"/>
<text text-anchor="middle" x="257" y="-303.5" font-family="sans" font-size="10.00">starTE_multihit</text>
</g>
<!-- 7&#45;&gt;9 -->
<g id="edge22" class="edge">
<title>7&#45;&gt;9</title>
<path fill="none" stroke="grey" stroke-width="2" d="M182.22,-359.88C194.92,-350.89 210.66,-339.76 224.42,-330.03"/>
<polygon fill="grey" stroke="grey" stroke-width="2" points="226.54,-332.82 232.69,-324.19 222.5,-327.11 226.54,-332.82"/>
</g>
<!-- 10 -->
<g id="node11" class="node">
<title>10</title>
<path fill="none" stroke="#bed856" stroke-width="2" d="M399,-324C399,-324 333,-324 333,-324 327,-324 321,-318 321,-312 321,-312 321,-300 321,-300 321,-294 327,-288 333,-288 333,-288 399,-288 399,-288 405,-288 411,-294 411,-300 411,-300 411,-312 411,-312 411,-318 405,-324 399,-324"/>
<text text-anchor="middle" x="366" y="-303.5" font-family="sans" font-size="10.00">starTE_random</text>
</g>
<!-- 7&#45;&gt;10 -->
<g id="edge24" class="edge">
<title>7&#45;&gt;10</title>
<path fill="none" stroke="grey" stroke-width="2" d="M193.81,-363.3C196.91,-362.17 200.01,-361.05 203,-360 238.88,-347.4 279.55,-334.17 311.29,-324.08"/>
<polygon fill="grey" stroke="grey" stroke-width="2" points="312.36,-327.42 320.84,-321.06 310.25,-320.74 312.36,-327.42"/>
</g>
<!-- 18 -->
<g id="node19" class="node">
<title>18</title>
<path fill="none" stroke="#56d863" stroke-width="2" d="M181,-324C181,-324 135,-324 135,-324 129,-324 123,-318 123,-312 123,-312 123,-300 123,-300 123,-294 129,-288 135,-288 135,-288 181,-288 181,-288 187,-288 193,-294 193,-300 193,-300 193,-312 193,-312 193,-318 187,-324 181,-324"/>
<text text-anchor="middle" x="158" y="-303.5" font-family="sans" font-size="10.00">star_single</text>
</g>
<!-- 7&#45;&gt;18 -->
<g id="edge31" class="edge">
<title>7&#45;&gt;18</title>
<path fill="none" stroke="grey" stroke-width="2" d="M158,-359.7C158,-351.98 158,-342.71 158,-334.11"/>
<polygon fill="grey" stroke="grey" stroke-width="2" points="161.5,-334.1 158,-324.1 154.5,-334.1 161.5,-334.1"/>
</g>
<!-- 8 -->
<g id="node9" class="node">
<title>8</title>
<path fill="none" stroke="#8fd856" stroke-width="2" d="M193.5,-252C193.5,-252 122.5,-252 122.5,-252 116.5,-252 110.5,-246 110.5,-240 110.5,-240 110.5,-228 110.5,-228 110.5,-222 116.5,-216 122.5,-216 122.5,-216 193.5,-216 193.5,-216 199.5,-216 205.5,-222 205.5,-228 205.5,-228 205.5,-240 205.5,-240 205.5,-246 199.5,-252 193.5,-252"/>
<text text-anchor="middle" x="158" y="-231.5" font-family="sans" font-size="10.00">picard_markdup</text>
</g>
<!-- 8&#45;&gt;1 -->
<g id="edge6" class="edge">
<title>8&#45;&gt;1</title>
<path fill="none" stroke="grey" stroke-width="2" d="M164.67,-215.7C167.71,-207.81 171.38,-198.3 174.76,-189.55"/>
<polygon fill="grey" stroke="grey" stroke-width="2" points="178.07,-190.69 178.4,-180.1 171.54,-188.17 178.07,-190.69"/>
</g>
<!-- 9&#45;&gt;1 -->
<g id="edge9" class="edge">
<title>9&#45;&gt;1</title>
<path fill="none" stroke="grey" stroke-width="2" d="M249.01,-287.81C240.56,-269.79 226.72,-240.72 214,-216 209.42,-207.1 204.22,-197.46 199.5,-188.88"/>
<polygon fill="grey" stroke="grey" stroke-width="2" points="202.53,-187.12 194.62,-180.07 196.4,-190.51 202.53,-187.12"/>
</g>
<!-- 16 -->
<g id="node17" class="node">
<title>16</title>
<path fill="none" stroke="#56d8a2" stroke-width="2" d="M742,-252C742,-252 700,-252 700,-252 694,-252 688,-246 688,-240 688,-240 688,-228 688,-228 688,-222 694,-216 700,-216 700,-216 742,-216 742,-216 748,-216 754,-222 754,-228 754,-228 754,-240 754,-240 754,-246 748,-252 742,-252"/>
<text text-anchor="middle" x="721" y="-231.5" font-family="sans" font-size="10.00">filter_bam</text>
</g>
<!-- 9&#45;&gt;16 -->
<g id="edge28" class="edge">
<title>9&#45;&gt;16</title>
<path fill="none" stroke="grey" stroke-width="2" d="M302.76,-290.21C305.87,-289.41 308.97,-288.66 312,-288 443.63,-259.35 602.71,-244.18 677.78,-238.16"/>
<polygon fill="grey" stroke="grey" stroke-width="2" points="678.11,-241.64 687.8,-237.37 677.56,-234.66 678.11,-241.64"/>
</g>
<!-- 10&#45;&gt;1 -->
<g id="edge7" class="edge">
<title>10&#45;&gt;1</title>
<path fill="none" stroke="grey" stroke-width="2" d="M340.62,-287.85C325.91,-277.71 307.16,-264.46 291,-252 263.5,-230.79 233.26,-205.16 212.14,-186.86"/>
<polygon fill="grey" stroke="grey" stroke-width="2" points="214.36,-184.16 204.52,-180.23 209.77,-189.44 214.36,-184.16"/>
</g>
<!-- 10&#45;&gt;16 -->
<g id="edge29" class="edge">
<title>10&#45;&gt;16</title>
<path fill="none" stroke="grey" stroke-width="2" d="M411.32,-296.06C480.13,-282.5 610.07,-256.87 677.67,-243.54"/>
<polygon fill="grey" stroke="grey" stroke-width="2" points="678.44,-246.96 687.57,-241.59 677.08,-240.09 678.44,-246.96"/>
</g>
<!-- 11 -->
<g id="node12" class="node">
<title>11</title>
<path fill="none" stroke="#d8b456" stroke-width="2" d="M386,-252C386,-252 312,-252 312,-252 306,-252 300,-246 300,-240 300,-240 300,-228 300,-228 300,-222 306,-216 312,-216 312,-216 386,-216 386,-216 392,-216 398,-222 398,-228 398,-228 398,-240 398,-240 398,-246 392,-252 386,-252"/>
<text text-anchor="middle" x="349" y="-231.5" font-family="sans" font-size="10.00">salmonTE_quant</text>
</g>
<!-- 11&#45;&gt;2 -->
<g id="edge12" class="edge">
<title>11&#45;&gt;2</title>
<path fill="none" stroke="grey" stroke-width="2" d="M310.22,-215.78C295.82,-207.24 281.04,-195.4 273,-180 265.6,-165.81 266.3,-158.53 273,-144 278.32,-132.44 287.55,-122.47 297.28,-114.4"/>
<polygon fill="grey" stroke="grey" stroke-width="2" points="299.71,-116.94 305.5,-108.06 295.44,-111.39 299.71,-116.94"/>
</g>
<!-- 12 -->
<g id="node13" class="node">
<title>12</title>
<path fill="none" stroke="#56d892" stroke-width="2" d="M376,-180C376,-180 294,-180 294,-180 288,-180 282,-174 282,-168 282,-168 282,-156 282,-156 282,-150 288,-144 294,-144 294,-144 376,-144 376,-144 382,-144 388,-150 388,-156 388,-156 388,-168 388,-168 388,-174 382,-180 376,-180"/>
<text text-anchor="middle" x="335" y="-159.5" font-family="sans" font-size="10.00">edit_condition_file</text>
</g>
<!-- 11&#45;&gt;12 -->
<g id="edge25" class="edge">
<title>11&#45;&gt;12</title>
<path fill="none" stroke="grey" stroke-width="2" d="M345.54,-215.7C344,-207.98 342.14,-198.71 340.42,-190.11"/>
<polygon fill="grey" stroke="grey" stroke-width="2" points="343.81,-189.22 338.42,-180.1 336.95,-190.6 343.81,-189.22"/>
</g>
<!-- 12&#45;&gt;2 -->
<g id="edge11" class="edge">
<title>12&#45;&gt;2</title>
<path fill="none" stroke="grey" stroke-width="2" d="M335,-143.7C335,-135.98 335,-126.71 335,-118.11"/>
<polygon fill="grey" stroke="grey" stroke-width="2" points="338.5,-118.1 335,-108.1 331.5,-118.1 338.5,-118.1"/>
</g>
<!-- 13 -->
<g id="node14" class="node">
<title>13</title>
<path fill="none" stroke="#56c9d8" stroke-width="2" d="M448,-180C448,-180 418,-180 418,-180 412,-180 406,-174 406,-168 406,-168 406,-156 406,-156 406,-150 412,-144 418,-144 418,-144 448,-144 448,-144 454,-144 460,-150 460,-156 460,-156 460,-168 460,-168 460,-174 454,-180 448,-180"/>
<text text-anchor="middle" x="433" y="-159.5" font-family="sans" font-size="10.00">deseq2</text>
</g>
<!-- 13&#45;&gt;3 -->
<g id="edge15" class="edge">
<title>13&#45;&gt;3</title>
<path fill="none" stroke="grey" stroke-width="2" d="M452.53,-143.7C462.38,-134.97 474.49,-124.24 485.2,-114.75"/>
<polygon fill="grey" stroke="grey" stroke-width="2" points="487.53,-117.36 492.7,-108.1 482.89,-112.12 487.53,-117.36"/>
</g>
<!-- 14 -->
<g id="node15" class="node">
<title>14</title>
<path fill="none" stroke="#56b1d8" stroke-width="2" d="M534,-180C534,-180 490,-180 490,-180 484,-180 478,-174 478,-168 478,-168 478,-156 478,-156 478,-150 484,-144 490,-144 490,-144 534,-144 534,-144 540,-144 546,-150 546,-156 546,-156 546,-168 546,-168 546,-174 540,-180 534,-180"/>
<text text-anchor="middle" x="512" y="-159.5" font-family="sans" font-size="10.00">subset_gtf</text>
</g>
<!-- 14&#45;&gt;3 -->
<g id="edge13" class="edge">
<title>14&#45;&gt;3</title>
<path fill="none" stroke="grey" stroke-width="2" d="M512,-143.7C512,-135.98 512,-126.71 512,-118.11"/>
<polygon fill="grey" stroke="grey" stroke-width="2" points="515.5,-118.1 512,-108.1 508.5,-118.1 515.5,-118.1"/>
</g>
<!-- 15 -->
<g id="node16" class="node">
<title>15</title>
<path fill="none" stroke="#a7d856" stroke-width="2" d="M657.5,-180C657.5,-180 576.5,-180 576.5,-180 570.5,-180 564.5,-174 564.5,-168 564.5,-168 564.5,-156 564.5,-156 564.5,-150 570.5,-144 576.5,-144 576.5,-144 657.5,-144 657.5,-144 663.5,-144 669.5,-150 669.5,-156 669.5,-156 669.5,-168 669.5,-168 669.5,-174 663.5,-180 657.5,-180"/>
<text text-anchor="middle" x="617" y="-159.5" font-family="sans" font-size="10.00">download_gaf_file</text>
</g>
<!-- 15&#45;&gt;3 -->
<g id="edge14" class="edge">
<title>15&#45;&gt;3</title>
<path fill="none" stroke="grey" stroke-width="2" d="M591.31,-143.88C577.71,-134.81 560.83,-123.55 546.14,-113.76"/>
<polygon fill="grey" stroke="grey" stroke-width="2" points="548.05,-110.82 537.78,-108.19 544.16,-116.65 548.05,-110.82"/>
</g>
<!-- 16&#45;&gt;4 -->
<g id="edge16" class="edge">
<title>16&#45;&gt;4</title>
<path fill="none" stroke="grey" stroke-width="2" d="M728.66,-215.7C732.19,-207.73 736.46,-198.1 740.37,-189.26"/>
<polygon fill="grey" stroke="grey" stroke-width="2" points="743.58,-190.67 744.43,-180.1 737.18,-187.83 743.58,-190.67"/>
</g>
<!-- 16&#45;&gt;5 -->
<g id="edge18" class="edge">
<title>16&#45;&gt;5</title>
<path fill="none" stroke="grey" stroke-width="2" d="M754.06,-220C779.92,-209.83 816.37,-195.5 846.24,-183.75"/>
<polygon fill="grey" stroke="grey" stroke-width="2" points="847.66,-186.95 855.69,-180.03 845.1,-180.43 847.66,-186.95"/>
</g>
<!-- 17 -->
<g id="node18" class="node">
<title>17</title>
<path fill="none" stroke="#61d856" stroke-width="2" d="M877.5,-396C877.5,-396 686.5,-396 686.5,-396 680.5,-396 674.5,-390 674.5,-384 674.5,-384 674.5,-372 674.5,-372 674.5,-366 680.5,-360 686.5,-360 686.5,-360 877.5,-360 877.5,-360 883.5,-360 889.5,-366 889.5,-372 889.5,-372 889.5,-384 889.5,-384 889.5,-390 883.5,-396 877.5,-396"/>
<text text-anchor="middle" x="782" y="-375.5" font-family="sans" font-size="10.00">download_repeatmasker_annotation_file</text>
</g>
<!-- 17&#45;&gt;4 -->
<g id="edge17" class="edge">
<title>17&#45;&gt;4</title>
<path fill="none" stroke="grey" stroke-width="2" d="M780.44,-359.54C777.69,-329.91 771.44,-267.95 763,-216 761.62,-207.52 759.83,-198.34 758.09,-190.04"/>
<polygon fill="grey" stroke="grey" stroke-width="2" points="761.48,-189.15 755.95,-180.12 754.63,-190.63 761.48,-189.15"/>
</g>
<!-- 17&#45;&gt;5 -->
<g id="edge19" class="edge">
<title>17&#45;&gt;5</title>
<path fill="none" stroke="grey" stroke-width="2" d="M791.38,-359.85C811.79,-322.52 860.35,-233.69 884.64,-189.26"/>
<polygon fill="grey" stroke="grey" stroke-width="2" points="887.85,-190.69 889.58,-180.23 881.71,-187.33 887.85,-190.69"/>
</g>
<!-- 21 -->
<g id="node22" class="node">
<title>21</title>
<path fill="none" stroke="#56d8d0" stroke-width="2" d="M739,-324C739,-324 709,-324 709,-324 703,-324 697,-318 697,-312 697,-312 697,-300 697,-300 697,-294 703,-288 709,-288 709,-288 739,-288 739,-288 745,-288 751,-294 751,-300 751,-300 751,-312 751,-312 751,-318 745,-324 739,-324"/>
<text text-anchor="middle" x="724" y="-303.5" font-family="sans" font-size="10.00">gtf2bed</text>
</g>
<!-- 17&#45;&gt;21 -->
<g id="edge34" class="edge">
<title>17&#45;&gt;21</title>
<path fill="none" stroke="grey" stroke-width="2" d="M767.66,-359.7C760.71,-351.3 752.23,-341.07 744.6,-331.86"/>
<polygon fill="grey" stroke="grey" stroke-width="2" points="747.25,-329.57 738.17,-324.1 741.86,-334.04 747.25,-329.57"/>
</g>
<!-- 18&#45;&gt;8 -->
<g id="edge20" class="edge">
<title>18&#45;&gt;8</title>
<path fill="none" stroke="grey" stroke-width="2" d="M158,-287.7C158,-279.98 158,-270.71 158,-262.11"/>
<polygon fill="grey" stroke="grey" stroke-width="2" points="161.5,-262.1 158,-252.1 154.5,-262.1 161.5,-262.1"/>
</g>
<!-- 20 -->
<g id="node21" class="node">
<title>20</title>
<path fill="none" stroke="#d6d856" stroke-width="2" d="M508,-252C508,-252 428,-252 428,-252 422,-252 416,-246 416,-240 416,-240 416,-228 416,-228 416,-222 422,-216 428,-216 428,-216 508,-216 508,-216 514,-216 520,-222 520,-228 520,-228 520,-240 520,-240 520,-246 514,-252 508,-252"/>
<text text-anchor="middle" x="468" y="-231.5" font-family="sans" font-size="10.00">verify_star_single</text>
</g>
<!-- 18&#45;&gt;20 -->
<g id="edge33" class="edge">
<title>18&#45;&gt;20</title>
<path fill="none" stroke="grey" stroke-width="2" d="M193.34,-290.66C196.25,-289.69 199.16,-288.79 202,-288 288.08,-264.06 314.95,-271.85 405.94,-252.1"/>
<polygon fill="grey" stroke="grey" stroke-width="2" points="406.84,-255.49 415.84,-249.9 405.32,-248.65 406.84,-255.49"/>
</g>
<!-- 19 -->
<g id="node20" class="node">
<title>19</title>
<path fill="none" stroke="#d8c356" stroke-width="2" d="M342,-396C342,-396 224,-396 224,-396 218,-396 212,-390 212,-384 212,-384 212,-372 212,-372 212,-366 218,-360 224,-360 224,-360 342,-360 342,-360 348,-360 354,-366 354,-372 354,-372 354,-384 354,-384 354,-390 348,-396 342,-396"/>
<text text-anchor="middle" x="283" y="-375.5" font-family="sans" font-size="10.00">star_genome_preparation</text>
</g>
<!-- 19&#45;&gt;9 -->
<g id="edge21" class="edge">
<title>19&#45;&gt;9</title>
<path fill="none" stroke="grey" stroke-width="2" d="M276.57,-359.7C273.64,-351.81 270.11,-342.3 266.86,-333.55"/>
<polygon fill="grey" stroke="grey" stroke-width="2" points="270.12,-332.26 263.35,-324.1 263.55,-334.7 270.12,-332.26"/>
</g>
<!-- 19&#45;&gt;10 -->
<g id="edge23" class="edge">
<title>19&#45;&gt;10</title>
<path fill="none" stroke="grey" stroke-width="2" d="M303.52,-359.7C313.87,-350.97 326.59,-340.24 337.84,-330.75"/>
<polygon fill="grey" stroke="grey" stroke-width="2" points="340.33,-333.23 345.72,-324.1 335.82,-327.88 340.33,-333.23"/>
</g>
<!-- 19&#45;&gt;18 -->
<g id="edge30" class="edge">
<title>19&#45;&gt;18</title>
<path fill="none" stroke="grey" stroke-width="2" d="M252.42,-359.88C235.93,-350.64 215.38,-339.13 197.66,-329.21"/>
<polygon fill="grey" stroke="grey" stroke-width="2" points="199.13,-326.02 188.7,-324.19 195.71,-332.13 199.13,-326.02"/>
</g>
<!-- 20&#45;&gt;13 -->
<g id="edge26" class="edge">
<title>20&#45;&gt;13</title>
<path fill="none" stroke="grey" stroke-width="2" d="M459.35,-215.7C455.36,-207.73 450.55,-198.1 446.13,-189.26"/>
<polygon fill="grey" stroke="grey" stroke-width="2" points="449.15,-187.48 441.55,-180.1 442.89,-190.61 449.15,-187.48"/>
</g>
<!-- 21&#45;&gt;16 -->
<g id="edge27" class="edge">
<title>21&#45;&gt;16</title>
<path fill="none" stroke="grey" stroke-width="2" d="M723.26,-287.7C722.93,-279.98 722.53,-270.71 722.16,-262.11"/>
<polygon fill="grey" stroke="grey" stroke-width="2" points="725.66,-261.95 721.73,-252.1 718.66,-262.25 725.66,-261.95"/>
</g>
<!-- 22 -->
<g id="node23" class="node">
<title>22</title>
<path fill="none" stroke="#d88556" stroke-width="2" d="M350.5,-468C350.5,-468 215.5,-468 215.5,-468 209.5,-468 203.5,-462 203.5,-456 203.5,-456 203.5,-444 203.5,-444 203.5,-438 209.5,-432 215.5,-432 215.5,-432 350.5,-432 350.5,-432 356.5,-432 362.5,-438 362.5,-444 362.5,-444 362.5,-456 362.5,-456 362.5,-462 356.5,-468 350.5,-468"/>
<text text-anchor="middle" x="283" y="-447.5" font-family="sans" font-size="10.00">download_genome_fasta_file</text>
</g>
<!-- 22&#45;&gt;19 -->
<g id="edge32" class="edge">
<title>22&#45;&gt;19</title>
<path fill="none" stroke="grey" stroke-width="2" d="M283,-431.7C283,-423.98 283,-414.71 283,-406.11"/>
<polygon fill="grey" stroke="grey" stroke-width="2" points="286.5,-406.1 283,-396.1 279.5,-406.1 286.5,-406.1"/>
</g>
</g>
</svg>
