<?xml version="1.0" encoding="UTF-8" standalone="no"?>
<!DOCTYPE svg PUBLIC "-//W3C//DTD SVG 1.1//EN"
 "http://www.w3.org/Graphics/SVG/1.1/DTD/svg11.dtd">
<!-- Generated by graphviz version 7.1.0 (0)
 -->
<!-- Title: snakemake_dag Pages: 1 -->
<svg width="1098pt" height="476pt"
 viewBox="0.00 0.00 1097.50 476.00" xmlns="http://www.w3.org/2000/svg" xmlns:xlink="http://www.w3.org/1999/xlink">
<g id="graph0" class="graph" transform="scale(1 1) rotate(0) translate(4 472)">
<title>snakemake_dag</title>
<polygon fill="white" stroke="none" points="-4,4 -4,-472 1093.5,-472 1093.5,4 -4,4"/>
<!-- 0 -->
<g id="node1" class="node">
<title>0</title>
<path fill="none" stroke="#5663d8" stroke-width="2" d="M461,-36C461,-36 431,-36 431,-36 425,-36 419,-30 419,-24 419,-24 419,-12 419,-12 419,-6 425,0 431,0 431,0 461,0 461,0 467,0 473,-6 473,-12 473,-12 473,-24 473,-24 473,-30 467,-36 461,-36"/>
<text text-anchor="middle" x="446" y="-15.5" font-family="sans" font-size="10.00">all</text>
</g>
<!-- 1 -->
<g id="node2" class="node">
<title>1</title>
<path fill="none" stroke="#61d856" stroke-width="2" d="M67.5,-108C67.5,-108 20.5,-108 20.5,-108 14.5,-108 8.5,-102 8.5,-96 8.5,-96 8.5,-84 8.5,-84 8.5,-78 14.5,-72 20.5,-72 20.5,-72 67.5,-72 67.5,-72 73.5,-72 79.5,-78 79.5,-84 79.5,-84 79.5,-96 79.5,-96 79.5,-102 73.5,-108 67.5,-108"/>
<text text-anchor="middle" x="44" y="-87.5" font-family="sans" font-size="10.00">multiqc_raw</text>
</g>
<!-- 1&#45;&gt;0 -->
<g id="edge1" class="edge">
<title>1&#45;&gt;0</title>
<path fill="none" stroke="grey" stroke-width="2" d="M80.43,-76.25C85.62,-74.68 90.92,-73.21 96,-72 206.48,-45.77 339.81,-29.79 405.45,-22.93"/>
<polygon fill="grey" stroke="grey" stroke-width="2" points="405.42,-26.45 415.01,-21.95 404.71,-19.49 405.42,-26.45"/>
</g>
<!-- 2 -->
<g id="node3" class="node">
<title>2</title>
<path fill="none" stroke="#d89c56" stroke-width="2" d="M70,-180C70,-180 12,-180 12,-180 6,-180 0,-174 0,-168 0,-168 0,-156 0,-156 0,-150 6,-144 12,-144 12,-144 70,-144 70,-144 76,-144 82,-150 82,-156 82,-156 82,-168 82,-168 82,-174 76,-180 70,-180"/>
<text text-anchor="middle" x="41" y="-159.5" font-family="sans" font-size="10.00">fastqc_raw_pe</text>
</g>
<!-- 2&#45;&gt;1 -->
<g id="edge11" class="edge">
<title>2&#45;&gt;1</title>
<path fill="none" stroke="grey" stroke-width="2" d="M41.76,-143.34C42.04,-136.75 42.37,-129.08 42.69,-121.67"/>
<polygon fill="grey" stroke="grey" stroke-width="2" points="46.17,-122.07 43.1,-111.93 39.18,-121.77 46.17,-122.07"/>
</g>
<!-- 3 -->
<g id="node4" class="node">
<title>3</title>
<path fill="none" stroke="#afd856" stroke-width="2" d="M91,-252C91,-252 41,-252 41,-252 35,-252 29,-246 29,-240 29,-240 29,-228 29,-228 29,-222 35,-216 41,-216 41,-216 91,-216 91,-216 97,-216 103,-222 103,-228 103,-228 103,-240 103,-240 103,-246 97,-252 91,-252"/>
<text text-anchor="middle" x="66" y="-231.5" font-family="sans" font-size="10.00">multiqc_trim</text>
</g>
<!-- 3&#45;&gt;0 -->
<g id="edge3" class="edge">
<title>3&#45;&gt;0</title>
<path fill="none" stroke="grey" stroke-width="2" d="M75.8,-215.02C86.9,-195.82 106.39,-165.28 129,-144 209,-68.7 339.75,-36.87 405.52,-25.07"/>
<polygon fill="grey" stroke="grey" stroke-width="2" points="405.9,-28.55 415.16,-23.41 404.72,-21.65 405.9,-28.55"/>
</g>
<!-- 4 -->
<g id="node5" class="node">
<title>4</title>
<path fill="none" stroke="#d86656" stroke-width="2" d="M332,-396C332,-396 264,-396 264,-396 258,-396 252,-390 252,-384 252,-384 252,-372 252,-372 252,-366 258,-360 264,-360 264,-360 332,-360 332,-360 338,-360 344,-366 344,-372 344,-372 344,-384 344,-384 344,-390 338,-396 332,-396"/>
<text text-anchor="middle" x="298" y="-375.5" font-family="sans" font-size="10.00">trimmomatic_pe</text>
</g>
<!-- 4&#45;&gt;3 -->
<g id="edge13" class="edge">
<title>4&#45;&gt;3</title>
<path fill="none" stroke="grey" stroke-width="2" d="M261.85,-359.01C242.62,-349.15 218.73,-336.43 198,-324 164.4,-303.85 127.54,-278.72 101.33,-260.32"/>
<polygon fill="grey" stroke="grey" stroke-width="2" points="103.45,-257.53 93.26,-254.62 99.41,-263.25 103.45,-257.53"/>
</g>
<!-- 5 -->
<g id="node6" class="node">
<title>5</title>
<path fill="none" stroke="#568ad8" stroke-width="2" d="M280.5,-324C280.5,-324 219.5,-324 219.5,-324 213.5,-324 207.5,-318 207.5,-312 207.5,-312 207.5,-300 207.5,-300 207.5,-294 213.5,-288 219.5,-288 219.5,-288 280.5,-288 280.5,-288 286.5,-288 292.5,-294 292.5,-300 292.5,-300 292.5,-312 292.5,-312 292.5,-318 286.5,-324 280.5,-324"/>
<text text-anchor="middle" x="250" y="-303.5" font-family="sans" font-size="10.00">fastqc_trim_pe</text>
</g>
<!-- 4&#45;&gt;5 -->
<g id="edge14" class="edge">
<title>4&#45;&gt;5</title>
<path fill="none" stroke="grey" stroke-width="2" d="M285.89,-359.34C280.92,-352.1 275.05,-343.53 269.51,-335.45"/>
<polygon fill="grey" stroke="grey" stroke-width="2" points="272.53,-333.67 263.99,-327.4 266.76,-337.62 272.53,-333.67"/>
</g>
<!-- 7 -->
<g id="node8" class="node">
<title>7</title>
<path fill="none" stroke="#569ad8" stroke-width="2" d="M390,-324C390,-324 360,-324 360,-324 354,-324 348,-318 348,-312 348,-312 348,-300 348,-300 348,-294 354,-288 360,-288 360,-288 390,-288 390,-288 396,-288 402,-294 402,-300 402,-300 402,-312 402,-312 402,-318 396,-324 390,-324"/>
<text text-anchor="middle" x="375" y="-303.5" font-family="sans" font-size="10.00">star</text>
</g>
<!-- 4&#45;&gt;7 -->
<g id="edge18" class="edge">
<title>4&#45;&gt;7</title>
<path fill="none" stroke="grey" stroke-width="2" d="M317.43,-359.34C326.03,-351.52 336.32,-342.16 345.81,-333.53"/>
<polygon fill="grey" stroke="grey" stroke-width="2" points="348.02,-336.25 353.07,-326.94 343.31,-331.07 348.02,-336.25"/>
</g>
<!-- 22 -->
<g id="node23" class="node">
<title>22</title>
<path fill="none" stroke="#d86e56" stroke-width="2" d="M601.5,-324C601.5,-324 540.5,-324 540.5,-324 534.5,-324 528.5,-318 528.5,-312 528.5,-312 528.5,-300 528.5,-300 528.5,-294 534.5,-288 540.5,-288 540.5,-288 601.5,-288 601.5,-288 607.5,-288 613.5,-294 613.5,-300 613.5,-300 613.5,-312 613.5,-312 613.5,-318 607.5,-324 601.5,-324"/>
<text text-anchor="middle" x="571" y="-303.5" font-family="sans" font-size="10.00">starTE_multihit</text>
</g>
<!-- 4&#45;&gt;22 -->
<g id="edge38" class="edge">
<title>4&#45;&gt;22</title>
<path fill="none" stroke="grey" stroke-width="2" d="M344.85,-366.92C387.06,-357.58 451.05,-342.79 515.26,-324.94"/>
<polygon fill="grey" stroke="grey" stroke-width="2" points="516.07,-328.35 524.75,-322.27 514.18,-321.61 516.07,-328.35"/>
</g>
<!-- 26 -->
<g id="node27" class="node">
<title>26</title>
<path fill="none" stroke="#68d856" stroke-width="2" d="M498,-324C498,-324 436,-324 436,-324 430,-324 424,-318 424,-312 424,-312 424,-300 424,-300 424,-294 430,-288 436,-288 436,-288 498,-288 498,-288 504,-288 510,-294 510,-300 510,-300 510,-312 510,-312 510,-318 504,-324 498,-324"/>
<text text-anchor="middle" x="467" y="-303.5" font-family="sans" font-size="10.00">starTE_random</text>
</g>
<!-- 4&#45;&gt;26 -->
<g id="edge43" class="edge">
<title>4&#45;&gt;26</title>
<path fill="none" stroke="grey" stroke-width="2" d="M341.08,-359.15C362.55,-350.26 388.76,-339.41 411.7,-329.91"/>
<polygon fill="grey" stroke="grey" stroke-width="2" points="413.01,-333.15 420.91,-326.09 410.33,-326.69 413.01,-333.15"/>
</g>
<!-- 5&#45;&gt;3 -->
<g id="edge12" class="edge">
<title>5&#45;&gt;3</title>
<path fill="none" stroke="grey" stroke-width="2" d="M206.86,-288.59C179.66,-278.24 144.42,-264.84 116,-254.02"/>
<polygon fill="grey" stroke="grey" stroke-width="2" points="117.3,-250.77 106.71,-250.49 114.81,-257.31 117.3,-250.77"/>
</g>
<!-- 6 -->
<g id="node7" class="node">
<title>6</title>
<path fill="none" stroke="#56d85b" stroke-width="2" d="M292.5,-180C292.5,-180 243.5,-180 243.5,-180 237.5,-180 231.5,-174 231.5,-168 231.5,-168 231.5,-156 231.5,-156 231.5,-150 237.5,-144 243.5,-144 243.5,-144 292.5,-144 292.5,-144 298.5,-144 304.5,-150 304.5,-156 304.5,-156 304.5,-168 304.5,-168 304.5,-174 298.5,-180 292.5,-180"/>
<text text-anchor="middle" x="268" y="-159.5" font-family="sans" font-size="10.00">multiqc_star</text>
</g>
<!-- 6&#45;&gt;0 -->
<g id="edge2" class="edge">
<title>6&#45;&gt;0</title>
<path fill="none" stroke="grey" stroke-width="2" d="M281.16,-143.33C296.08,-124.12 321.9,-93.31 349,-72 366.57,-58.18 388.24,-45.97 406.63,-36.76"/>
<polygon fill="grey" stroke="grey" stroke-width="2" points="407.98,-39.99 415.45,-32.47 404.92,-33.7 407.98,-39.99"/>
</g>
<!-- 7&#45;&gt;6 -->
<g id="edge15" class="edge">
<title>7&#45;&gt;6</title>
<path fill="none" stroke="grey" stroke-width="2" d="M353.79,-287.09C342.96,-277.35 330,-264.72 320,-252 305.44,-233.48 292.11,-210.48 282.59,-192.5"/>
<polygon fill="grey" stroke="grey" stroke-width="2" points="285.72,-190.94 278.02,-183.66 279.5,-194.15 285.72,-190.94"/>
</g>
<!-- 11 -->
<g id="node12" class="node">
<title>11</title>
<path fill="none" stroke="#d88d56" stroke-width="2" d="M260.5,-252C260.5,-252 217.5,-252 217.5,-252 211.5,-252 205.5,-246 205.5,-240 205.5,-240 205.5,-228 205.5,-228 205.5,-222 211.5,-216 217.5,-216 217.5,-216 260.5,-216 260.5,-216 266.5,-216 272.5,-222 272.5,-228 272.5,-228 272.5,-240 272.5,-240 272.5,-246 266.5,-252 260.5,-252"/>
<text text-anchor="middle" x="239" y="-231.5" font-family="sans" font-size="10.00">fastqc_star</text>
</g>
<!-- 7&#45;&gt;11 -->
<g id="edge22" class="edge">
<title>7&#45;&gt;11</title>
<path fill="none" stroke="grey" stroke-width="2" d="M347.15,-290.67C329.14,-281.39 305.27,-269.11 284.54,-258.44"/>
<polygon fill="grey" stroke="grey" stroke-width="2" points="286.26,-255.39 275.77,-253.93 283.06,-261.61 286.26,-255.39"/>
</g>
<!-- 13 -->
<g id="node14" class="node">
<title>13</title>
<path fill="none" stroke="#56d0d8" stroke-width="2" d="M408.5,-252C408.5,-252 341.5,-252 341.5,-252 335.5,-252 329.5,-246 329.5,-240 329.5,-240 329.5,-228 329.5,-228 329.5,-222 335.5,-216 341.5,-216 341.5,-216 408.5,-216 408.5,-216 414.5,-216 420.5,-222 420.5,-228 420.5,-228 420.5,-240 420.5,-240 420.5,-246 414.5,-252 408.5,-252"/>
<text text-anchor="middle" x="375" y="-231.5" font-family="sans" font-size="10.00">picard_markdup</text>
</g>
<!-- 7&#45;&gt;13 -->
<g id="edge25" class="edge">
<title>7&#45;&gt;13</title>
<path fill="none" stroke="grey" stroke-width="2" d="M375,-287.34C375,-280.75 375,-273.08 375,-265.67"/>
<polygon fill="grey" stroke="grey" stroke-width="2" points="378.5,-265.93 375,-255.93 371.5,-265.93 378.5,-265.93"/>
</g>
<!-- 16 -->
<g id="node17" class="node">
<title>16</title>
<path fill="none" stroke="#d8c356" stroke-width="2" d="M175,-252C175,-252 133,-252 133,-252 127,-252 121,-246 121,-240 121,-240 121,-228 121,-228 121,-222 127,-216 133,-216 133,-216 175,-216 175,-216 181,-216 187,-222 187,-228 187,-228 187,-240 187,-240 187,-246 181,-252 175,-252"/>
<text text-anchor="middle" x="154" y="-231.5" font-family="sans" font-size="10.00">verify_star</text>
</g>
<!-- 7&#45;&gt;16 -->
<g id="edge29" class="edge">
<title>7&#45;&gt;16</title>
<path fill="none" stroke="grey" stroke-width="2" d="M347.14,-297.65C314.06,-288.73 257.01,-272.75 199.98,-253.23"/>
<polygon fill="grey" stroke="grey" stroke-width="2" points="201.27,-249.98 190.68,-250.01 198.98,-256.59 201.27,-249.98"/>
</g>
<!-- 27 -->
<g id="node28" class="node">
<title>27</title>
<path fill="none" stroke="#5673d8" stroke-width="2" d="M517.5,-180C517.5,-180 482.5,-180 482.5,-180 476.5,-180 470.5,-174 470.5,-168 470.5,-168 470.5,-156 470.5,-156 470.5,-150 476.5,-144 482.5,-144 482.5,-144 517.5,-144 517.5,-144 523.5,-144 529.5,-150 529.5,-156 529.5,-156 529.5,-168 529.5,-168 529.5,-174 523.5,-180 517.5,-180"/>
<text text-anchor="middle" x="500" y="-159.5" font-family="sans" font-size="10.00">coverage</text>
</g>
<!-- 7&#45;&gt;27 -->
<g id="edge45" class="edge">
<title>7&#45;&gt;27</title>
<path fill="none" stroke="grey" stroke-width="2" d="M394.31,-287.15C404.87,-277.11 418,-264.19 429,-252 446.65,-232.43 465.18,-209.11 478.88,-191.24"/>
<polygon fill="grey" stroke="grey" stroke-width="2" points="481.63,-193.4 484.9,-183.32 476.06,-189.16 481.63,-193.4"/>
</g>
<!-- 28 -->
<g id="node29" class="node">
<title>28</title>
<path fill="none" stroke="#567bd8" stroke-width="2" d="M531,-252C531,-252 489,-252 489,-252 483,-252 477,-246 477,-240 477,-240 477,-228 477,-228 477,-222 483,-216 489,-216 489,-216 531,-216 531,-216 537,-216 543,-222 543,-228 543,-228 543,-240 543,-240 543,-246 537,-252 531,-252"/>
<text text-anchor="middle" x="510" y="-231.5" font-family="sans" font-size="10.00">index_bam</text>
</g>
<!-- 7&#45;&gt;28 -->
<g id="edge47" class="edge">
<title>7&#45;&gt;28</title>
<path fill="none" stroke="grey" stroke-width="2" d="M402.97,-290.5C420.87,-281.21 444.5,-268.96 465,-258.33"/>
<polygon fill="grey" stroke="grey" stroke-width="2" points="466.38,-261.56 473.64,-253.85 463.15,-255.35 466.38,-261.56"/>
</g>
<!-- 30 -->
<g id="node31" class="node">
<title>30</title>
<path fill="none" stroke="#56d8a2" stroke-width="2" d="M679,-252C679,-252 611,-252 611,-252 605,-252 599,-246 599,-240 599,-240 599,-228 599,-228 599,-222 605,-216 611,-216 611,-216 679,-216 679,-216 685,-216 691,-222 691,-228 691,-228 691,-240 691,-240 691,-246 685,-252 679,-252"/>
<text text-anchor="middle" x="645" y="-231.5" font-family="sans" font-size="10.00">mk_genome_tsv</text>
</g>
<!-- 7&#45;&gt;30 -->
<g id="edge49" class="edge">
<title>7&#45;&gt;30</title>
<path fill="none" stroke="grey" stroke-width="2" d="M402.72,-292.41C406.79,-290.8 410.97,-289.27 415,-288 488.66,-264.79 510.03,-270.54 585,-252 585.27,-251.93 585.54,-251.87 585.81,-251.8"/>
<polygon fill="grey" stroke="grey" stroke-width="2" points="586.51,-255.23 595.31,-249.34 584.75,-248.46 586.51,-255.23"/>
</g>
<!-- 32 -->
<g id="node33" class="node">
<title>32</title>
<path fill="none" stroke="#d8b456" stroke-width="2" d="M618.5,-180C618.5,-180 559.5,-180 559.5,-180 553.5,-180 547.5,-174 547.5,-168 547.5,-168 547.5,-156 547.5,-156 547.5,-150 553.5,-144 559.5,-144 559.5,-144 618.5,-144 618.5,-144 624.5,-144 630.5,-150 630.5,-156 630.5,-156 630.5,-168 630.5,-168 630.5,-174 624.5,-180 618.5,-180"/>
<text text-anchor="middle" x="589" y="-159.5" font-family="sans" font-size="10.00">coverage_trna</text>
</g>
<!-- 7&#45;&gt;32 -->
<g id="edge50" class="edge">
<title>7&#45;&gt;32</title>
<path fill="none" stroke="grey" stroke-width="2" d="M402.77,-292.59C406.84,-290.95 411,-289.37 415,-288 474.57,-267.63 504.54,-293.36 552,-252 569.22,-236.99 578.59,-212.69 583.6,-193.26"/>
<polygon fill="grey" stroke="grey" stroke-width="2" points="586.96,-194.25 585.74,-183.73 580.13,-192.72 586.96,-194.25"/>
</g>
<!-- 8 -->
<g id="node9" class="node">
<title>8</title>
<path fill="none" stroke="#d8cb56" stroke-width="2" d="M525.5,-396C525.5,-396 412.5,-396 412.5,-396 406.5,-396 400.5,-390 400.5,-384 400.5,-384 400.5,-372 400.5,-372 400.5,-366 406.5,-360 412.5,-360 412.5,-360 525.5,-360 525.5,-360 531.5,-360 537.5,-366 537.5,-372 537.5,-372 537.5,-384 537.5,-384 537.5,-390 531.5,-396 525.5,-396"/>
<text text-anchor="middle" x="469" y="-375.5" font-family="sans" font-size="10.00">star_genome_preparation</text>
</g>
<!-- 8&#45;&gt;7 -->
<g id="edge19" class="edge">
<title>8&#45;&gt;7</title>
<path fill="none" stroke="grey" stroke-width="2" d="M445.28,-359.34C434.34,-351.19 421.16,-341.37 409.17,-332.45"/>
<polygon fill="grey" stroke="grey" stroke-width="2" points="411.58,-329.88 401.47,-326.71 407.4,-335.49 411.58,-329.88"/>
</g>
<!-- 8&#45;&gt;22 -->
<g id="edge39" class="edge">
<title>8&#45;&gt;22</title>
<path fill="none" stroke="grey" stroke-width="2" d="M495,-359.15C506.99,-350.93 521.43,-341.02 534.49,-332.06"/>
<polygon fill="grey" stroke="grey" stroke-width="2" points="536.28,-335.07 542.55,-326.53 532.32,-329.3 536.28,-335.07"/>
</g>
<!-- 8&#45;&gt;26 -->
<g id="edge44" class="edge">
<title>8&#45;&gt;26</title>
<path fill="none" stroke="grey" stroke-width="2" d="M468.5,-359.34C468.31,-352.75 468.09,-345.08 467.88,-337.67"/>
<polygon fill="grey" stroke="grey" stroke-width="2" points="471.38,-337.82 467.6,-327.93 464.39,-338.02 471.38,-337.82"/>
</g>
<!-- 9 -->
<g id="node10" class="node">
<title>9</title>
<path fill="none" stroke="#d85656" stroke-width="2" d="M575.5,-468C575.5,-468 448.5,-468 448.5,-468 442.5,-468 436.5,-462 436.5,-456 436.5,-456 436.5,-444 436.5,-444 436.5,-438 442.5,-432 448.5,-432 448.5,-432 575.5,-432 575.5,-432 581.5,-432 587.5,-438 587.5,-444 587.5,-444 587.5,-456 587.5,-456 587.5,-462 581.5,-468 575.5,-468"/>
<text text-anchor="middle" x="512" y="-447.5" font-family="sans" font-size="10.00">download_genome_fasta_file</text>
</g>
<!-- 9&#45;&gt;8 -->
<g id="edge21" class="edge">
<title>9&#45;&gt;8</title>
<path fill="none" stroke="grey" stroke-width="2" d="M501.15,-431.34C496.75,-424.18 491.56,-415.73 486.65,-407.73"/>
<polygon fill="grey" stroke="grey" stroke-width="2" points="489.8,-406.17 481.58,-399.48 483.83,-409.83 489.8,-406.17"/>
</g>
<!-- 10 -->
<g id="node11" class="node">
<title>10</title>
<path fill="none" stroke="#d87d56" stroke-width="2" d="M406.5,-468C406.5,-468 251.5,-468 251.5,-468 245.5,-468 239.5,-462 239.5,-456 239.5,-456 239.5,-444 239.5,-444 239.5,-438 245.5,-432 251.5,-432 251.5,-432 406.5,-432 406.5,-432 412.5,-432 418.5,-438 418.5,-444 418.5,-444 418.5,-456 418.5,-456 418.5,-462 412.5,-468 406.5,-468"/>
<text text-anchor="middle" x="329" y="-447.5" font-family="sans" font-size="10.00">download_genome_annotation_file</text>
</g>
<!-- 10&#45;&gt;7 -->
<g id="edge17" class="edge">
<title>10&#45;&gt;7</title>
<path fill="none" stroke="grey" stroke-width="2" d="M338.06,-431.18C342.95,-421.05 348.83,-408.02 353,-396 359.66,-376.8 365.15,-354.62 368.98,-337.2"/>
<polygon fill="grey" stroke="grey" stroke-width="2" points="372.35,-338.14 371,-327.63 365.51,-336.69 372.35,-338.14"/>
</g>
<!-- 10&#45;&gt;8 -->
<g id="edge20" class="edge">
<title>10&#45;&gt;8</title>
<path fill="none" stroke="grey" stroke-width="2" d="M364.69,-431.15C382.05,-422.47 403.15,-411.92 421.82,-402.59"/>
<polygon fill="grey" stroke="grey" stroke-width="2" points="423.29,-405.77 430.67,-398.17 420.16,-399.51 423.29,-405.77"/>
</g>
<!-- 15 -->
<g id="node16" class="node">
<title>15</title>
<path fill="none" stroke="#78d856" stroke-width="2" d="M180,-180C180,-180 150,-180 150,-180 144,-180 138,-174 138,-168 138,-168 138,-156 138,-156 138,-150 144,-144 150,-144 150,-144 180,-144 180,-144 186,-144 192,-150 192,-156 192,-156 192,-168 192,-168 192,-174 186,-180 180,-180"/>
<text text-anchor="middle" x="165" y="-159.5" font-family="sans" font-size="10.00">deseq2</text>
</g>
<!-- 10&#45;&gt;15 -->
<g id="edge28" class="edge">
<title>10&#45;&gt;15</title>
<path fill="none" stroke="grey" stroke-width="2" d="M269.86,-431.01C195.96,-404.97 72.8,-348.94 20,-252 12.35,-237.95 10.83,-229.11 20,-216 32.32,-198.38 86.17,-182.02 124.64,-172.27"/>
<polygon fill="grey" stroke="grey" stroke-width="2" points="125.45,-175.68 134.33,-169.89 123.78,-168.88 125.45,-175.68"/>
</g>
<!-- 11&#45;&gt;6 -->
<g id="edge16" class="edge">
<title>11&#45;&gt;6</title>
<path fill="none" stroke="grey" stroke-width="2" d="M246.32,-215.34C249.15,-208.51 252.46,-200.5 255.64,-192.83"/>
<polygon fill="grey" stroke="grey" stroke-width="2" points="258.83,-194.28 259.42,-183.7 252.36,-191.6 258.83,-194.28"/>
</g>
<!-- 12 -->
<g id="node13" class="node">
<title>12</title>
<path fill="none" stroke="#56d8d8" stroke-width="2" d="M443.5,-108C443.5,-108 370.5,-108 370.5,-108 364.5,-108 358.5,-102 358.5,-96 358.5,-96 358.5,-84 358.5,-84 358.5,-78 364.5,-72 370.5,-72 370.5,-72 443.5,-72 443.5,-72 449.5,-72 455.5,-78 455.5,-84 455.5,-84 455.5,-96 455.5,-96 455.5,-102 449.5,-108 443.5,-108"/>
<text text-anchor="middle" x="407" y="-87.5" font-family="sans" font-size="10.00">multiqc_markdup</text>
</g>
<!-- 12&#45;&gt;0 -->
<g id="edge8" class="edge">
<title>12&#45;&gt;0</title>
<path fill="none" stroke="grey" stroke-width="2" d="M416.84,-71.34C420.74,-64.34 425.32,-56.12 429.69,-48.28"/>
<polygon fill="grey" stroke="grey" stroke-width="2" points="432.74,-49.99 434.55,-39.55 426.63,-46.58 432.74,-49.99"/>
</g>
<!-- 13&#45;&gt;12 -->
<g id="edge24" class="edge">
<title>13&#45;&gt;12</title>
<path fill="none" stroke="grey" stroke-width="2" d="M363.7,-215.1C353.64,-196.75 341.95,-167.65 352,-144 356.2,-134.11 363.26,-125.17 370.94,-117.57"/>
<polygon fill="grey" stroke="grey" stroke-width="2" points="373.13,-120.31 378.22,-111.01 368.44,-115.11 373.13,-120.31"/>
</g>
<!-- 14 -->
<g id="node15" class="node">
<title>14</title>
<path fill="none" stroke="#56d8b9" stroke-width="2" d="M440.5,-180C440.5,-180 373.5,-180 373.5,-180 367.5,-180 361.5,-174 361.5,-168 361.5,-168 361.5,-156 361.5,-156 361.5,-150 367.5,-144 373.5,-144 373.5,-144 440.5,-144 440.5,-144 446.5,-144 452.5,-150 452.5,-156 452.5,-156 452.5,-168 452.5,-168 452.5,-174 446.5,-180 440.5,-180"/>
<text text-anchor="middle" x="407" y="-159.5" font-family="sans" font-size="10.00">fastqc_markdup</text>
</g>
<!-- 13&#45;&gt;14 -->
<g id="edge26" class="edge">
<title>13&#45;&gt;14</title>
<path fill="none" stroke="grey" stroke-width="2" d="M383.07,-215.34C386.23,-208.43 389.94,-200.31 393.49,-192.56"/>
<polygon fill="grey" stroke="grey" stroke-width="2" points="396.58,-194.2 397.56,-183.65 390.22,-191.29 396.58,-194.2"/>
</g>
<!-- 14&#45;&gt;12 -->
<g id="edge23" class="edge">
<title>14&#45;&gt;12</title>
<path fill="none" stroke="grey" stroke-width="2" d="M407,-143.34C407,-136.75 407,-129.08 407,-121.67"/>
<polygon fill="grey" stroke="grey" stroke-width="2" points="410.5,-121.93 407,-111.93 403.5,-121.93 410.5,-121.93"/>
</g>
<!-- 15&#45;&gt;0 -->
<g id="edge10" class="edge">
<title>15&#45;&gt;0</title>
<path fill="none" stroke="grey" stroke-width="2" d="M190.7,-143.09C218.88,-123.95 265.84,-93.46 309,-72 340.69,-56.25 378.27,-42 406.05,-32.26"/>
<polygon fill="grey" stroke="grey" stroke-width="2" points="406.9,-35.67 415.21,-29.09 404.61,-29.05 406.9,-35.67"/>
</g>
<!-- 16&#45;&gt;15 -->
<g id="edge27" class="edge">
<title>16&#45;&gt;15</title>
<path fill="none" stroke="grey" stroke-width="2" d="M156.78,-215.34C157.81,-208.75 159.02,-201.08 160.18,-193.67"/>
<polygon fill="grey" stroke="grey" stroke-width="2" points="163.62,-194.31 161.72,-183.89 156.71,-193.23 163.62,-194.31"/>
</g>
<!-- 17 -->
<g id="node18" class="node">
<title>17</title>
<path fill="none" stroke="#56b1d8" stroke-width="2" d="M989.5,-108C989.5,-108 930.5,-108 930.5,-108 924.5,-108 918.5,-102 918.5,-96 918.5,-96 918.5,-84 918.5,-84 918.5,-78 924.5,-72 930.5,-72 930.5,-72 989.5,-72 989.5,-72 995.5,-72 1001.5,-78 1001.5,-84 1001.5,-84 1001.5,-96 1001.5,-96 1001.5,-102 995.5,-108 989.5,-108"/>
<text text-anchor="middle" x="960" y="-87.5" font-family="sans" font-size="10.00">salmonTE_test</text>
</g>
<!-- 17&#45;&gt;0 -->
<g id="edge5" class="edge">
<title>17&#45;&gt;0</title>
<path fill="none" stroke="grey" stroke-width="2" d="M917.94,-83.27C820.83,-70.05 582.04,-37.53 486.49,-24.51"/>
<polygon fill="grey" stroke="grey" stroke-width="2" points="487.1,-21.07 476.72,-23.18 486.16,-28 487.1,-21.07"/>
</g>
<!-- 18 -->
<g id="node19" class="node">
<title>18</title>
<path fill="none" stroke="#b6d856" stroke-width="2" d="M1073,-252C1073,-252 1005,-252 1005,-252 999,-252 993,-246 993,-240 993,-240 993,-228 993,-228 993,-222 999,-216 1005,-216 1005,-216 1073,-216 1073,-216 1079,-216 1085,-222 1085,-228 1085,-228 1085,-240 1085,-240 1085,-246 1079,-252 1073,-252"/>
<text text-anchor="middle" x="1039" y="-231.5" font-family="sans" font-size="10.00">salmonTE_quant</text>
</g>
<!-- 18&#45;&gt;17 -->
<g id="edge30" class="edge">
<title>18&#45;&gt;17</title>
<path fill="none" stroke="grey" stroke-width="2" d="M1011.78,-215.04C999.99,-205.9 987.06,-193.8 979,-180 968.65,-162.28 963.91,-139.63 961.75,-121.61"/>
<polygon fill="grey" stroke="grey" stroke-width="2" points="965.26,-121.54 960.84,-111.91 958.29,-122.2 965.26,-121.54"/>
</g>
<!-- 19 -->
<g id="node20" class="node">
<title>19</title>
<path fill="none" stroke="#56d87b" stroke-width="2" d="M1077.5,-180C1077.5,-180 1000.5,-180 1000.5,-180 994.5,-180 988.5,-174 988.5,-168 988.5,-168 988.5,-156 988.5,-156 988.5,-150 994.5,-144 1000.5,-144 1000.5,-144 1077.5,-144 1077.5,-144 1083.5,-144 1089.5,-150 1089.5,-156 1089.5,-156 1089.5,-168 1089.5,-168 1089.5,-174 1083.5,-180 1077.5,-180"/>
<text text-anchor="middle" x="1039" y="-159.5" font-family="sans" font-size="10.00">edit_condition_file</text>
</g>
<!-- 18&#45;&gt;19 -->
<g id="edge32" class="edge">
<title>18&#45;&gt;19</title>
<path fill="none" stroke="grey" stroke-width="2" d="M1039,-215.34C1039,-208.75 1039,-201.08 1039,-193.67"/>
<polygon fill="grey" stroke="grey" stroke-width="2" points="1042.5,-193.93 1039,-183.93 1035.5,-193.93 1042.5,-193.93"/>
</g>
<!-- 19&#45;&gt;17 -->
<g id="edge31" class="edge">
<title>19&#45;&gt;17</title>
<path fill="none" stroke="grey" stroke-width="2" d="M1019.06,-143.34C1010.24,-135.52 999.68,-126.16 989.95,-117.53"/>
<polygon fill="grey" stroke="grey" stroke-width="2" points="992.27,-114.92 982.47,-110.91 987.63,-120.16 992.27,-114.92"/>
</g>
<!-- 20 -->
<g id="node21" class="node">
<title>20</title>
<path fill="none" stroke="#88d856" stroke-width="2" d="M776.5,-180C776.5,-180 677.5,-180 677.5,-180 671.5,-180 665.5,-174 665.5,-168 665.5,-168 665.5,-156 665.5,-156 665.5,-150 671.5,-144 677.5,-144 677.5,-144 776.5,-144 776.5,-144 782.5,-144 788.5,-150 788.5,-156 788.5,-156 788.5,-168 788.5,-168 788.5,-174 782.5,-180 776.5,-180"/>
<text text-anchor="middle" x="727" y="-159.5" font-family="sans" font-size="10.00">featureCounts_multihit</text>
</g>
<!-- 20&#45;&gt;0 -->
<g id="edge7" class="edge">
<title>20&#45;&gt;0</title>
<path fill="none" stroke="grey" stroke-width="2" d="M720.13,-143C711.4,-122.59 694.34,-89.83 669,-72 613.94,-33.25 534.25,-22.57 486.54,-19.78"/>
<polygon fill="grey" stroke="grey" stroke-width="2" points="486.86,-16.29 476.71,-19.32 486.54,-23.29 486.86,-16.29"/>
</g>
<!-- 21 -->
<g id="node22" class="node">
<title>21</title>
<path fill="none" stroke="#9fd856" stroke-width="2" d="M887,-252C887,-252 847,-252 847,-252 841,-252 835,-246 835,-240 835,-240 835,-228 835,-228 835,-222 841,-216 847,-216 847,-216 887,-216 887,-216 893,-216 899,-222 899,-228 899,-228 899,-240 899,-240 899,-246 893,-252 887,-252"/>
<text text-anchor="middle" x="867" y="-231.5" font-family="sans" font-size="10.00">filter_bam</text>
</g>
<!-- 21&#45;&gt;20 -->
<g id="edge34" class="edge">
<title>21&#45;&gt;20</title>
<path fill="none" stroke="grey" stroke-width="2" d="M834.18,-216.59C816.29,-207.64 793.84,-196.42 774.11,-186.56"/>
<polygon fill="grey" stroke="grey" stroke-width="2" points="775.78,-183.48 765.27,-182.13 772.65,-189.74 775.78,-183.48"/>
</g>
<!-- 25 -->
<g id="node26" class="node">
<title>25</title>
<path fill="none" stroke="#d8a456" stroke-width="2" d="M919,-180C919,-180 819,-180 819,-180 813,-180 807,-174 807,-168 807,-168 807,-156 807,-156 807,-150 813,-144 819,-144 819,-144 919,-144 919,-144 925,-144 931,-150 931,-156 931,-156 931,-168 931,-168 931,-174 925,-180 919,-180"/>
<text text-anchor="middle" x="869" y="-159.5" font-family="sans" font-size="10.00">featureCounts_random</text>
</g>
<!-- 21&#45;&gt;25 -->
<g id="edge42" class="edge">
<title>21&#45;&gt;25</title>
<path fill="none" stroke="grey" stroke-width="2" d="M867.5,-215.34C867.69,-208.75 867.91,-201.08 868.12,-193.67"/>
<polygon fill="grey" stroke="grey" stroke-width="2" points="871.61,-194.02 868.4,-183.93 864.62,-193.82 871.61,-194.02"/>
</g>
<!-- 22&#45;&gt;21 -->
<g id="edge36" class="edge">
<title>22&#45;&gt;21</title>
<path fill="none" stroke="grey" stroke-width="2" d="M614.49,-298.52C663.15,-290.72 744.4,-276.03 821.71,-253.04"/>
<polygon fill="grey" stroke="grey" stroke-width="2" points="822.63,-256.42 831.18,-250.16 820.6,-249.72 822.63,-256.42"/>
</g>
<!-- 23 -->
<g id="node24" class="node">
<title>23</title>
<path fill="none" stroke="#c6d856" stroke-width="2" d="M884,-324C884,-324 854,-324 854,-324 848,-324 842,-318 842,-312 842,-312 842,-300 842,-300 842,-294 848,-288 854,-288 854,-288 884,-288 884,-288 890,-288 896,-294 896,-300 896,-300 896,-312 896,-312 896,-318 890,-324 884,-324"/>
<text text-anchor="middle" x="869" y="-303.5" font-family="sans" font-size="10.00">gtf2bed</text>
</g>
<!-- 23&#45;&gt;21 -->
<g id="edge35" class="edge">
<title>23&#45;&gt;21</title>
<path fill="none" stroke="grey" stroke-width="2" d="M868.5,-287.34C868.31,-280.75 868.09,-273.08 867.88,-265.67"/>
<polygon fill="grey" stroke="grey" stroke-width="2" points="871.38,-265.82 867.6,-255.93 864.39,-266.02 871.38,-265.82"/>
</g>
<!-- 24 -->
<g id="node25" class="node">
<title>24</title>
<path fill="none" stroke="#56d882" stroke-width="2" d="M1017.5,-396C1017.5,-396 836.5,-396 836.5,-396 830.5,-396 824.5,-390 824.5,-384 824.5,-384 824.5,-372 824.5,-372 824.5,-366 830.5,-360 836.5,-360 836.5,-360 1017.5,-360 1017.5,-360 1023.5,-360 1029.5,-366 1029.5,-372 1029.5,-372 1029.5,-384 1029.5,-384 1029.5,-390 1023.5,-396 1017.5,-396"/>
<text text-anchor="middle" x="927" y="-375.5" font-family="sans" font-size="10.00">download_repeatmasker_annotation_file</text>
</g>
<!-- 24&#45;&gt;20 -->
<g id="edge33" class="edge">
<title>24&#45;&gt;20</title>
<path fill="none" stroke="grey" stroke-width="2" d="M930.66,-359.07C936.2,-326.47 942.7,-257.06 908,-216 904.28,-211.6 849.94,-196.02 801.76,-182.88"/>
<polygon fill="grey" stroke="grey" stroke-width="2" points="802.85,-179.55 792.28,-180.31 801.02,-186.3 802.85,-179.55"/>
</g>
<!-- 24&#45;&gt;23 -->
<g id="edge40" class="edge">
<title>24&#45;&gt;23</title>
<path fill="none" stroke="grey" stroke-width="2" d="M912.36,-359.34C906.23,-351.93 898.95,-343.14 892.12,-334.9"/>
<polygon fill="grey" stroke="grey" stroke-width="2" points="894.84,-332.7 885.76,-327.23 889.45,-337.17 894.84,-332.7"/>
</g>
<!-- 24&#45;&gt;25 -->
<g id="edge41" class="edge">
<title>24&#45;&gt;25</title>
<path fill="none" stroke="grey" stroke-width="2" d="M934.29,-359.41C945.89,-328.52 964.93,-263.32 941,-216 935.44,-205 926.4,-195.72 916.57,-188.16"/>
<polygon fill="grey" stroke="grey" stroke-width="2" points="918.85,-185.48 908.65,-182.63 914.85,-191.22 918.85,-185.48"/>
</g>
<!-- 25&#45;&gt;0 -->
<g id="edge6" class="edge">
<title>25&#45;&gt;0</title>
<path fill="none" stroke="grey" stroke-width="2" d="M840.82,-143C808.15,-122.9 752.11,-90.74 700,-72 627.04,-45.76 537.37,-30.85 486.44,-23.89"/>
<polygon fill="grey" stroke="grey" stroke-width="2" points="487.13,-20.45 476.75,-22.61 486.21,-27.39 487.13,-20.45"/>
</g>
<!-- 26&#45;&gt;21 -->
<g id="edge37" class="edge">
<title>26&#45;&gt;21</title>
<path fill="none" stroke="grey" stroke-width="2" d="M510.8,-290C513.56,-289.27 516.31,-288.59 519,-288 649.11,-259.4 690.56,-284.99 821.61,-252.73"/>
<polygon fill="grey" stroke="grey" stroke-width="2" points="822.39,-256.14 831.22,-250.28 820.66,-249.36 822.39,-256.14"/>
</g>
<!-- 27&#45;&gt;0 -->
<g id="edge9" class="edge">
<title>27&#45;&gt;0</title>
<path fill="none" stroke="grey" stroke-width="2" d="M493.16,-143.02C484.15,-119.33 468.19,-77.35 457.36,-48.86"/>
<polygon fill="grey" stroke="grey" stroke-width="2" points="460.69,-47.77 453.86,-39.67 454.14,-50.26 460.69,-47.77"/>
</g>
<!-- 28&#45;&gt;27 -->
<g id="edge46" class="edge">
<title>28&#45;&gt;27</title>
<path fill="none" stroke="grey" stroke-width="2" d="M507.48,-215.34C506.54,-208.75 505.44,-201.08 504.38,-193.67"/>
<polygon fill="grey" stroke="grey" stroke-width="2" points="507.86,-193.3 502.99,-183.9 500.93,-194.29 507.86,-193.3"/>
</g>
<!-- 28&#45;&gt;32 -->
<g id="edge52" class="edge">
<title>28&#45;&gt;32</title>
<path fill="none" stroke="grey" stroke-width="2" d="M529.94,-215.34C538.76,-207.52 549.32,-198.16 559.05,-189.53"/>
<polygon fill="grey" stroke="grey" stroke-width="2" points="561.37,-192.16 566.53,-182.91 556.73,-186.92 561.37,-192.16"/>
</g>
<!-- 29 -->
<g id="node30" class="node">
<title>29</title>
<path fill="none" stroke="#56d86b" stroke-width="2" d="M648.5,-108C648.5,-108 527.5,-108 527.5,-108 521.5,-108 515.5,-102 515.5,-96 515.5,-96 515.5,-84 515.5,-84 515.5,-78 521.5,-72 527.5,-72 527.5,-72 648.5,-72 648.5,-72 654.5,-72 660.5,-78 660.5,-84 660.5,-84 660.5,-96 660.5,-96 660.5,-102 654.5,-108 648.5,-108"/>
<text text-anchor="middle" x="588" y="-87.5" font-family="sans" font-size="10.00">build_trna_coverage_matrix</text>
</g>
<!-- 29&#45;&gt;0 -->
<g id="edge4" class="edge">
<title>29&#45;&gt;0</title>
<path fill="none" stroke="grey" stroke-width="2" d="M551.8,-71.15C531.47,-61.13 506.08,-48.62 485.27,-38.36"/>
<polygon fill="grey" stroke="grey" stroke-width="2" points="486.85,-35.23 476.33,-33.95 483.75,-41.51 486.85,-35.23"/>
</g>
<!-- 30&#45;&gt;32 -->
<g id="edge53" class="edge">
<title>30&#45;&gt;32</title>
<path fill="none" stroke="grey" stroke-width="2" d="M630.87,-215.34C624.95,-207.93 617.91,-199.14 611.32,-190.9"/>
<polygon fill="grey" stroke="grey" stroke-width="2" points="614.19,-188.89 605.21,-183.27 608.73,-193.26 614.19,-188.89"/>
</g>
<!-- 31 -->
<g id="node32" class="node">
<title>31</title>
<path fill="none" stroke="#8fd856" stroke-width="2" d="M805,-252C805,-252 721,-252 721,-252 715,-252 709,-246 709,-240 709,-240 709,-228 709,-228 709,-222 715,-216 721,-216 721,-216 805,-216 805,-216 811,-216 817,-222 817,-228 817,-228 817,-240 817,-240 817,-246 811,-252 805,-252"/>
<text text-anchor="middle" x="763" y="-231.5" font-family="sans" font-size="10.00">download_gtRNAdb</text>
</g>
<!-- 31&#45;&gt;32 -->
<g id="edge51" class="edge">
<title>31&#45;&gt;32</title>
<path fill="none" stroke="grey" stroke-width="2" d="M718.64,-215.15C695.73,-205.94 667.58,-194.61 643.37,-184.87"/>
<polygon fill="grey" stroke="grey" stroke-width="2" points="644.87,-181.7 634.28,-181.22 642.26,-188.2 644.87,-181.7"/>
</g>
<!-- 32&#45;&gt;29 -->
<g id="edge48" class="edge">
<title>32&#45;&gt;29</title>
<path fill="none" stroke="grey" stroke-width="2" d="M588.75,-143.34C588.65,-136.75 588.54,-129.08 588.44,-121.67"/>
<polygon fill="grey" stroke="grey" stroke-width="2" points="591.94,-121.88 588.3,-111.93 584.94,-121.98 591.94,-121.88"/>
</g>
</g>
</svg>
